<?xml version="1.0" encoding="UTF-8" standalone="no"?>
<!-- Created with Inkscape (http://www.inkscape.org/) -->

<svg
   version="1.1"
   id="svg26"
   width="738.05878"
   height="526.63855"
   viewBox="0 0 738.05878 526.63855"
   sodipodi:docname="signature.svg"
   inkscape:version="1.2.2 (732a01da63, 2022-12-09)"
   inkscape:export-filename="C:\Users\Jandáskovi\Desktop\path36.png"
   inkscape:export-xdpi="96"
   inkscape:export-ydpi="96"
   xmlns:inkscape="http://www.inkscape.org/namespaces/inkscape"
   xmlns:sodipodi="http://sodipodi.sourceforge.net/DTD/sodipodi-0.dtd"
   xmlns="http://www.w3.org/2000/svg"
   xmlns:svg="http://www.w3.org/2000/svg"
   xmlns:rdf="http://www.w3.org/1999/02/22-rdf-syntax-ns#"
   xmlns:cc="http://creativecommons.org/ns#"
   xmlns:dc="http://purl.org/dc/elements/1.1/">
  <metadata
     id="metadata32">
    <rdf:RDF>
      <cc:Work
         rdf:about="">
        <dc:format>image/svg+xml</dc:format>
        <dc:type
           rdf:resource="http://purl.org/dc/dcmitype/StillImage" />
        <dc:title />
      </cc:Work>
    </rdf:RDF>
  </metadata>
  <defs
     id="defs30" />
  <sodipodi:namedview
     pagecolor="#ffffff"
     bordercolor="#666666"
     borderopacity="1"
     objecttolerance="10"
     gridtolerance="10"
     guidetolerance="10"
     inkscape:pageopacity="0"
     inkscape:pageshadow="2"
     inkscape:window-width="1920"
     inkscape:window-height="1147"
     id="namedview28"
     showgrid="false"
     inkscape:lockguides="true"
     inkscape:zoom="0.94874372"
     inkscape:cx="673.52224"
     inkscape:cy="353.09852"
     inkscape:window-x="-8"
     inkscape:window-y="-8"
     inkscape:window-maximized="1"
     inkscape:current-layer="layer1"
     inkscape:showpageshadow="2"
     inkscape:pagecheckerboard="0"
     inkscape:deskcolor="#d1d1d1" />
  <g
     inkscape:groupmode="layer"
     id="layer1"
     inkscape:label="Layer 1"
     style="display:inline"
     transform="translate(-26.121593,-37.540796)">
    <path
       id="path36"
       style="fill:#000000;stroke:#000000;stroke-opacity:1"
       d="m 610.56836,48.910156 c -2.92173,0.16335 -2.91381,5.848321 0.0234,18.027344 3.93855,16.330906 0.64968,56.22838 -5.64649,68.49414 -6.89134,13.42528 -17.53191,24.87648 -22.82812,24.56641 -3.91841,-0.22942 -4.22405,-2.68376 -0.9961,-8.00391 10.43571,-17.19959 10.29709,-29.39862 -0.32617,-28.80469 -6.83068,0.38189 -11.70052,11.04103 -11.50586,25.18164 0.13407,9.73992 -0.56122,11.48301 -5.52734,13.87305 -4.73652,2.27954 -6.0904,-6.01835 -2.82227,-17.29297 2.28474,-7.88202 -1.67163,-14.54861 -8.41015,-14.17187 -5.80889,0.32477 -6.26206,3.73885 -1.7168,12.95508 7.49057,15.18831 1.22007,26.43103 -13.6543,24.47851 -7.1181,-0.93438 -9.28469,4.88412 -2.43554,6.54102 v 0.002 c 5.98702,1.44836 14.30899,-1.46719 20.67773,-7.24414 2.03754,-1.84822 2.90656,-2.12831 3.88672,-1.25195 1.87163,1.67341 6.39687,1.0978 10.35351,-1.31641 3.47522,-2.12047 3.51664,-2.12156 7.94141,-0.26953 6.34331,2.65507 10.61803,0.90625 18.82617,-7.70313 3.49418,-3.66495 7.581,-7.03632 9.08203,-7.49218 2.09312,-0.63568 3.28987,-2.19428 5.13477,-6.6875 2.29513,-5.58981 6.65376,-9.98624 8.375,-8.44727 0.4159,0.37185 -0.69417,4.27394 -2.46484,8.66992 -10.11767,25.11869 10.76494,30.36174 46.5664,11.69336 5.45754,-2.84579 23.92471,-16.49625 25.00391,-18.48242 1.48406,-2.73133 -2.60351,-1.51658 -8.67578,2.57812 -51.31638,34.6042 -77.65948,24.5073 -43.86328,-16.8125 7.96833,-9.74223 5.23934,-10.92116 -6.90625,-2.98046 -10.57425,6.91335 -11.98045,6.38314 -8.08594,-3.05274 2.33425,-5.65559 2.18744,-26.801451 -0.26172,-37.683592 -0.83999,-3.732325 -2.13104,-9.923504 -2.86914,-13.757813 -2.26897,-11.786898 -4.0223,-15.764963 -6.875,-15.605469 z M 484.49805,90.693359 c -2.50575,0.499934 -2.34472,-0.194129 -5.02539,21.669921 -0.95449,7.78497 -1.63669,15.89756 -1.51758,18.02734 0.73669,13.1765 -22.86134,51.70951 -28.92188,47.22657 -5.66289,-4.18884 2.96787,-24.16466 11.39453,-26.37305 3.49742,-0.91657 4.40699,-3.39344 1.85547,-5.04883 -11.12156,-7.21551 -26.62695,27.94719 -16.16406,36.65625 5.7268,4.76689 14.22734,-1.12326 22.46289,-15.5625 5.18729,-9.09473 5.61603,-8.92789 6.76367,2.60938 0.6545,6.57981 1.57903,10.72581 2.86524,12.85937 1.3596,2.2553 2.59782,3.11062 4.36718,3.01172 2.78056,-0.15546 3.02518,-1.73892 0.69336,-4.48828 -3.49048,-4.11548 -2.61042,-36.29788 1.44141,-52.7207 3.84686,-15.59201 3.71569,-38.65139 -0.21484,-37.867191 z m 60.61133,4.462891 c -9.62425,-0.620365 -33.05654,24.37285 -29.74805,33.03711 0.34108,0.8932 0.88053,2.31286 1.19922,3.15625 0.72182,1.91022 2.55209,0.77698 2.4375,-1.50977 -0.38702,-7.72261 9.50069,-19.55947 22.25,-26.63476 8.04181,-4.462839 8.95676,-5.70069 5.58984,-7.570314 -0.50687,-0.281462 -1.08691,-0.437158 -1.72851,-0.478516 z m 35.10742,33.83203 c 0.88438,-0.0323 1.81956,0.17637 2.72461,0.5918 2.00923,0.92227 1.58089,4.47951 -0.98829,9.94726 -1.56019,3.34016 -3.40967,7.13555 -5.63085,9.7168 -1.31754,1.08696 -3.19582,1.58024 -3.26172,-2.04297 -0.0842,-4.63359 -0.33007,-8.43121 3.55664,-15.9082 0.79532,-1.52999 2.12564,-2.25083 3.59961,-2.30469 z m -74.27539,15.67383 c -2.10343,-0.23317 -3.79253,1.08739 -6.19141,3.83984 -12.04284,13.81793 -6.11154,42.11479 6.27734,29.94727 4.05392,-3.98149 4.88484,-4.02628 6.6543,-0.34961 0.78061,1.62199 2.16986,3.33496 3.08789,3.80469 2.29886,1.17626 2.80966,1.08313 4.50977,-0.81836 2.25011,-2.51664 1.53922,-10.18113 -1.07813,-11.61914 -2.82709,-1.55327 -2.8095,-5.24111 0.041,-8.19532 3.41773,-3.54206 2.96982,-4.618 -4.62891,-11.12109 -4.05173,-3.46752 -6.56845,-5.25511 -8.67187,-5.48828 z m 0.8125,6.08984 c 1.05299,0.0386 2.36372,0.36927 4.05468,1.14063 2.4281,1.34993 3.34584,3.99092 3.66993,5.98047 0.94693,5.81322 -4.80944,11.46381 -9.79688,15.32812 -1.8675,1.44697 -3.37616,1.23443 -3.82617,0.79492 -0.62223,-0.60772 -2.28347,-1.77945 -2.6543,-6.69921 -0.32134,-4.26326 2.33158,-12.46143 4.87891,-14.98633 0.88133,-0.87359 1.91883,-1.62284 3.67383,-1.5586 z m -106.20899,5.25391 c -1.34588,0.006 -3.50661,4.29846 -6.45117,12.87891 -6.11061,17.80633 -16.38387,29.61632 -20.34961,29.08007 -7.04053,-0.95201 -8.5738,-31.67278 -1.56836,-32.06445 3.16144,-0.17675 3.43351,-2.7514 0.67383,-6.36133 -1.48844,-1.94703 -3.02647,-3.51432 -3.41797,-3.48242 -0.39152,0.0315 -3.78602,0.89022 -7.54297,1.9082 -3.75694,1.018 -8.51921,1.67571 -10.58398,1.46289 -8.36351,-0.86207 -23.46975,12.40175 -26.66016,23.40821 -7.68072,26.4974 11.35084,33.99768 28.37109,11.18164 8.31825,-11.15078 7.16584,-10.64398 10.33594,0.71094 1.71015,6.12551 6.28278,8.33352 7.73242,8.56054 0.33539,0.2034 8.33872,0.85264 19.4629,-14.6289 5.38986,-7.50113 4.6517,-8.56004 5.66015,-1.96094 1.43034,9.35983 3.53787,8.82154 12.10938,-3.08984 13.04223,-18.12422 19.39956,-20.25513 20.15429,-6.75586 0.61599,11.01778 5.66722,11.69266 5.84571,0.78125 0.31314,-19.14235 -9.32492,-20.21118 -24.73438,-2.74415 -7.42834,8.42023 -7.99222,7.96581 -7.47656,-6.03906 0.31553,-8.56953 -0.21466,-12.85128 -1.56055,-12.8457 z m -41.74804,7.27734 c 4.26288,0.17317 4.31425,5.43609 0.46093,13.14258 -3.76724,7.53438 -10.02137,16.46416 -16.27148,21.36133 -11.68137,9.15272 -18.95385,-0.88066 -11.95508,-16.49414 2.80948,-6.26762 15.51591,-15.23864 20.27344,-16.49609 0.73177,-0.19342 3.68989,-0.84891 5.40625,-1.26758 0.78183,-0.19071 1.47695,-0.27083 2.08594,-0.2461 z" />
  </g>
  <g
     style="display:inline"
     inkscape:label="Layer 1 copy"
     id="g100"
     inkscape:groupmode="layer"
     transform="translate(-26.121593,-37.540796)">
    <path
       id="path98"
       style="fill:#000000"
       d="M 36.984375,37.625 C 35.267864,38.562886 35.10736,47.610171 35.017578,78.693359 34.954339,100.58718 34.486426,128.62501 33.976562,141 c -0.509863,12.37499 -1.346772,33.16282 -1.859374,46.19531 -0.512604,13.0325 -1.234041,24.18538 -1.603516,24.78321 -0.369474,0.59782 -1.056647,8.83503 -1.527344,18.30468 -0.470697,9.46966 -1.380413,25.31681 -2.021484,35.2168 -2.152457,33.24011 -0.252562,47 6.488281,47 4.008135,0 7.814478,-5.56912 10.935547,-16 8.39264,-28.04893 25.160326,-65.82817 41.759766,-94.08789 C 131.9198,124.4886 224.79136,59.530215 262.93164,78.761719 275.33238,85.014556 288.33673,108.30895 296.00195,138 c 0.49697,1.925 1.56457,5.975 2.37305,9 1.68235,6.29467 3.97821,17.53136 5.51758,27 3.73027,22.94491 2.39982,58 -2.20117,58 C 299.71253,232 262.20045,248.3632 249,254.98438 183.34007,287.91856 147.1074,319.48999 107.18555,378.55273 98.952834,390.7327 88.698922,413.74044 83.144531,432.5 66.99538,487.04261 81.138454,545.05039 114.5,561.10938 c 24.32623,11.70971 61.37998,-10.59344 96.54688,-58.11329 3.05117,-4.12294 7.67351,-10.36556 10.27148,-13.87304 2.59797,-3.50749 7.25805,-10.2575 10.35547,-15 3.09743,-4.74251 7.98552,-12.22305 10.86328,-16.62305 10.53973,-16.11489 22.66269,-39.24083 31.97461,-60.99609 6.48832,-15.15857 16.34505,-41.83843 18.47266,-50.00391 0.85946,-3.29857 4.33627,-16.16011 6.48828,-24 4.45889,-16.24396 10.24607,-53.31939 12.09765,-77.5 0.35797,-4.675 1.08513,-9.03754 1.61524,-9.69336 3.35842,-4.15493 71.94887,-21.71706 116.81445,-29.91016 45.44507,-8.29892 44.25207,-8.09677 58.5,-9.92187 6.59999,-0.84542 23.25001,-3.2931 37,-5.43945 39.98502,-6.24162 65.75382,-9.15781 124.5,-14.08789 77.17466,-6.47664 89.70051,-7.70279 96.29883,-9.42969 3.18932,-0.83472 7.14042,-1.51758 8.78125,-1.51758 1.64083,0 4.65633,-0.75228 6.70117,-1.67188 5.40946,-2.43275 0.89871,-3.04674 -5.86914,-0.79882 -2.78005,0.92339 -6.6943,1.46918 -8.72656,1.21679 -2.02692,-0.25172 -6.61055,-0.10308 -10.18555,0.33008 -7.79926,0.94498 -37.79266,3.217 -78,5.91016 -16.22498,1.08677 -31.975,2.20941 -35,2.49414 -6.97534,0.65655 -39.48802,4.09563 -56.5,5.97656 -12.79023,1.41415 -49.72309,6.64068 -60.50977,8.5625 -3.03023,0.53989 -11.21978,1.64842 -18.19921,2.46485 -6.97945,0.81642 -19.57493,2.81066 -27.99024,4.42968 -8.4153,1.61902 -17.32578,3.24127 -19.80078,3.60547 -2.475,0.3642 -14.40001,2.61888 -26.5,5.01172 -35.3334,6.20248 -40.60618,8.91619 -66.125,15.42383 -8.86859,2.2591 -19.60267,5.24444 -23.85352,6.63281 -12.31185,4.02118 -11.90547,4.40879 -12.67578,-12.08789 -2.00406,-42.91807 -5.21615,-61.88467 -15.58008,-92 -18.23061,-52.974194 -41.17881,-62.002114 -94,-36.976562 C 139.36998,113.32205 73.013164,195.27115 47.626953,274.5 c -1.409829,4.4 -3.209563,10.025 -4,12.5 -10.08603,31.58113 -16.439761,21.35283 -12.1875,-19.62109 0.792186,-7.63334 1.930237,-22.65392 2.527344,-33.37891 0.597105,-10.72499 1.543253,-26.70001 2.103515,-35.5 0.560263,-8.79999 1.435368,-28.37502 1.94336,-43.5 0.507991,-15.12498 1.194871,-31.06367 1.527344,-35.41992 1.167567,-15.29822 0.956509,-79.482945 -0.265625,-80.70508 -0.973463,-0.973462 -1.718846,-1.562629 -2.291016,-1.25 z m 160.751955,87.66406 c -1.96248,-0.14365 -5.43252,1.04414 -10.42188,3.55274 C 163.82266,140.65325 115.89737,184 126.33008,184 c 0.73148,0 4.89398,-3.71709 9.25,-8.25977 11.51532,-12.00873 47.18425,-40.29611 53.17578,-42.17187 3.48487,-1.09101 3.89934,1.84232 0.90234,6.37109 -1.41566,2.1392 -4.21886,8.76494 -6.23047,14.72461 -4.99147,14.7879 -9.49552,25.48132 -17.20117,40.83594 -10.39992,20.72336 -11.81098,22.57787 -19.32812,25.40625 -24.15421,9.08817 -31.0691,27.06669 -14.17578,36.85742 6.2651,3.63103 7.6092,2.51548 13.85546,-11.50195 6.96366,-15.62732 10.71844,-22.14392 13.36524,-23.19531 8.04025,-3.19381 41.42178,-9.52794 68.55664,-13.00977 12.27026,-1.57447 13.5,-1.88978 13.5,-3.45117 0,-4.07147 -37.47248,-0.25115 -69.76367,7.11133 -10.20128,2.32591 -10.288,1.92112 -2.85938,-13.25196 10.86812,-22.19828 18.12432,-48.12174 20.62305,-53.66601 1.0248,-2.27387 2.26444,-5.42231 5.0332,-9.63672 5.05542,-7.69495 5.97392,-11.63363 2.70313,-11.87305 z m -89.90625,77.35547 C 103.76577,201.9834 98.483814,206.59007 96.201172,214 c -1.101284,3.575 -3.66031,10.23138 -5.6875,14.79102 -10.100028,22.71738 -9.646196,45.8534 0.986328,50.25586 1.099999,0.45545 2.599549,0.63123 3.332031,0.39062 C 95.564515,279.19689 96.55723,279 97.039062,279 98.231277,279 103,270.72993 103,268.66211 c 0,-2.45853 -0.99747,-2.05511 -4.572266,1.84766 -4.590548,5.0117 -8.061422,2.29132 -9.955078,-7.80274 -0.667956,-3.56052 1.334889,-19.78221 2.355469,-22.38672 1.180292,-3.41201 6.182721,-16.8552 12.535155,-22.54883 8.56652,-10.18268 9.0327,-10.91987 7.96875,-12.61914 -0.92814,-1.48237 -2.14718,-2.28743 -3.50195,-2.50781 z m 42.64062,22.08789 c 1.28768,0.0679 1.17688,1.48769 0.58399,2.8711 -0.79052,1.84454 -8.95852,18.83994 -11.33008,24.43945 -2.37155,5.5995 -4.8752,3.16294 -8.30078,0.59375 -3.42558,-2.56919 -4.41433,-8.82683 -2.50391,-13.76758 1.91043,-4.94073 8.89444,-9.88219 14.95508,-11.99023 0,0 1.7124,-0.39537 4.80859,-1.71289 0.77405,-0.32939 1.35789,-0.45624 1.78711,-0.4336 z m 151.13477,13.83399 c 6.07346,-0.0989 5.71257,11.23728 -0.25,48.43359 -1.9045,11.88086 -2.90247,16.81398 -6.07422,30 -1.38912,5.77499 -2.88529,12.075 -3.32422,14 -0.43892,1.925 -1.54461,5.975 -2.45703,9 -0.91242,3.025 -2.03501,7.075 -2.49414,9 -1.46701,6.1507 -8.67276,26.15692 -13.32617,37 -10.44044,24.32759 -12.58087,29.00862 -17.84571,39 -9.37525,17.79197 -11.8286,21.92254 -23.75195,40 -27.82099,42.18051 -46.12458,63.65943 -68.18945,80.01953 -10.57544,7.8412 -15.21484,8.8764 -18.79102,10.07422 -10.2939,3.53976 -17.69258,2.93767 -22.10156,2.5332 -4.01473,-0.43165 -7.67695,-0.7027 -17.19336,-10.61718 -7.467953,-7.78033 -7.544332,-8.43515 -9.474609,-10.91407 -1.986982,-2.55175 -2.323999,-4.5799 -4.126953,-7.61132 -1.053764,-1.77177 -1.760337,-4.43048 -3.591797,-7.73047 -1.831459,-3.3 -2.443674,-6.35267 -2.96289,-8.56641 -0.592049,-2.52426 -1.197528,-5.31155 -2.015625,-10.5293 -0.704961,-4.49626 -0.539273,-5.81866 -0.710938,-7.03515 -0.50487,-3.57764 -1.935149,-32.71834 1.949219,-50.12305 6.399618,-28.67481 22.443123,-60.1635 43.308593,-85 2.77237,-3.3 6.61903,-8.42631 8.54883,-11.39062 23.84524,-36.62807 89.60397,-80.84338 161.875,-108.84376 1.13265,-0.43882 2.13236,-0.68509 3,-0.69921 z" />
  </g>
</svg>
