<svg xmlns:dc="http://purl.org/dc/elements/1.1/"
     xmlns:cc="http://creativecommons.org/ns#"
     xmlns:rdf="http://www.w3.org/1999/02/22-rdf-syntax-ns#"
     xmlns:svg="http://www.w3.org/2000/svg"
     xmlns="http://www.w3.org/2000/svg"
     xmlns:sodipodi="http://sodipodi.sourceforge.net/DTD/sodipodi-0.dtd"
     xmlns:inkscape="http://www.inkscape.org/namespaces/inkscape"
     version="1.1"
     id="svg26"
     sodipodi:docname="tst2.svg"
     inkscape:version="0.92.3 (2405546, 2018-03-11)"
     inkscape:export-filename="C:\Users\Jandáskovi\Desktop\path36.png"
     inkscape:export-xdpi="96"
     inkscape:export-ydpi="96"
     viewBox="26.12 37.54 738.06 526.64">
  <metadata id="metadata32">
    <rdf:RDF>
      <cc:Work rdf:about="">
        <dc:format>image/svg+xml</dc:format>
        <dc:type rdf:resource="http://purl.org/dc/dcmitype/StillImage"/>
        <dc:title/>
      </cc:Work>
    </rdf:RDF>
  </metadata>
  <defs id="defs30"/>
  <sodipodi:namedview pagecolor="#ffffff"
                      bordercolor="#666666"
                      borderopacity="1"
                      objecttolerance="10"
                      gridtolerance="10"
                      guidetolerance="10"
                      inkscape:pageopacity="0"
                      inkscape:pageshadow="2"
                      inkscape:window-width="1680"
                      inkscape:window-height="997"
                      id="namedview28"
                      showgrid="false"
                      inkscape:lockguides="true"
                      inkscape:zoom="0.67086312"
                      inkscape:cx="341.04237"
                      inkscape:cy="620.72883"
                      inkscape:window-x="-8"
                      inkscape:window-y="-8"
                      inkscape:window-maximized="1"
                      inkscape:current-layer="g100"/>
  <g inkscape:groupmode="layer"
     id="layer1"
     inkscape:label="Layer 1"
     style="display:inline">
    <path style="fill:#000000"
          d="m 371.22398,203.33513 c -1.44966,-0.22702 -6.02204,-2.43485 -7.73219,-8.56038 -3.17012,-11.35494 -2.01813,-11.86088 -10.33638,-0.71008 -17.02029,22.81608 -36.05153,15.31453 -28.37079,-11.18293 3.19041,-11.00648 18.29598,-24.26921 26.65951,-23.40712 2.06477,0.21282 6.82801,-0.44596 10.58497,-1.46396 3.75695,-1.01798 7.15117,-1.87664 7.54269,-1.90809 0.3915,-0.0319 1.9297,1.53585 3.41814,3.48288 2.75968,3.60993 2.48643,6.18523 -0.67501,6.36198 -7.00546,0.39167 -5.47124,31.11197 1.56931,32.06398 3.96574,0.53625 14.23846,-11.27361 20.34909,-29.07998 5.88913,-17.1609 8.64364,-17.1723 8.01257,-0.0332 -0.51566,14.00489 0.0468,14.45927 7.47516,6.03904 15.40948,-17.46707 25.04869,-16.39736 24.73555,2.74501 -0.17849,10.91145 -5.22979,10.23505 -5.84578,-0.78277 -0.75473,-13.49929 -7.11202,-11.36823 -20.15429,6.75601 -8.57151,11.91142 -10.67987,12.44928 -12.11021,3.08943 -1.00845,-6.59912 -0.2695,-5.53875 -5.65938,1.96238 -11.1242,15.48158 -19.12757,14.83116 -19.46296,14.62776 z m -28.09821,-5.50093 c 6.25013,-4.89717 12.50362,-13.82725 16.27088,-21.36165 4.4038,-8.80744 3.70918,-14.42292 -2.54551,-12.89724 -1.71636,0.41867 -4.67426,1.0738 -5.40603,1.26722 -4.75753,1.25747 -17.46537,10.22845 -20.27485,16.49609 -6.99879,15.61352 0.27412,25.64832 11.95551,16.49558 z m 135.22401,-15.0295 c -1.28621,-2.13356 -2.20983,-6.28034 -2.86433,-12.86017 -1.14764,-11.53729 -1.57733,-11.70297 -6.76462,-2.60822 -8.23557,14.43926 -16.73581,20.32776 -22.46263,15.56087 -10.46291,-8.70908 5.04376,-43.87061 16.16534,-36.65508 2.55152,1.65539 1.64092,4.13138 -1.8565,5.04795 -8.42668,2.20839 -17.05736,22.18572 -11.39445,26.37456 6.06054,4.48296 29.65845,-34.05123 28.92176,-47.22775 -0.11911,-2.1298 0.56446,-10.2419 1.51895,-18.02689 2.68069,-21.864094 2.5196,-21.1695 5.02535,-21.669434 3.93055,-0.784201 4.06088,22.274624 0.21402,37.866654 -4.05183,16.42286 -4.93146,48.60602 -1.44096,52.7215 2.33182,2.74936 2.08742,4.33137 -0.69314,4.48683 -1.76938,0.0989 -3.00919,-0.75552 -4.36879,-3.01082 z M 515.91,181.94998 c -0.91803,-0.46973 -2.30782,-2.18113 -3.08843,-3.80312 -1.76946,-3.67667 -2.59961,-3.63323 -6.65353,0.34826 -12.38892,12.16754 -18.3217,-16.12825 -6.27884,-29.9462 4.79776,-5.50493 6.76086,-5.28732 14.86435,1.64773 7.59875,6.50311 8.04678,7.57953 4.62903,11.12161 -2.85052,2.95421 -2.86969,6.64223 -0.0426,8.1955 2.61735,1.43801 3.32895,9.1019 1.07882,11.61854 -1.70011,1.90149 -2.20996,1.99394 -4.50882,0.81768 z m 18.95234,-7.14855 c -6.84915,-1.6569 -4.68251,-7.47711 2.43561,-6.54273 14.87439,1.95252 21.14553,-9.28883 13.65494,-24.47718 -4.54526,-9.21623 -4.0929,-12.63171 1.71599,-12.95648 6.73854,-0.37674 10.69483,6.2902 8.41009,14.17224 -3.26815,11.27464 -1.91359,19.57254 2.82293,17.293 4.96614,-2.39004 5.66064,-4.13342 5.52657,-13.87336 -0.19466,-14.14065 4.67595,-24.79969 11.50665,-25.18158 10.62328,-0.59393 10.76106,11.60584 0.32533,28.80547 -3.22797,5.32015 -2.9227,7.7737 0.99571,8.00312 5.29623,0.31007 15.93726,-11.14086 22.82862,-24.56616 6.29617,-12.26578 9.58537,-52.162486 5.6468,-68.493424 -2.93725,-12.179047 -2.94443,-17.863487 -0.0227,-18.026837 2.8527,-0.159494 4.6048,3.818174 6.87377,15.605096 0.7381,3.834317 2.02928,10.025203 2.86927,13.757534 2.44916,10.882163 2.59603,32.027821 0.26178,37.683431 -3.89451,9.4359 -2.48871,9.96678 8.08556,3.05341 12.14563,-7.9407 14.87553,-6.76338 6.90718,2.97887 -33.79626,41.31988 -7.45357,51.41721 43.86291,16.81295 6.07229,-4.09472 10.15904,-5.30913 8.67498,-2.5778 -1.0792,1.98617 -19.54631,15.63713 -25.00385,18.48292 -35.80154,18.66842 -56.68254,13.42429 -46.56485,-11.69444 1.77069,-4.396 2.87914,-8.29695 2.46324,-8.6688 -1.72124,-1.53897 -6.07912,2.8563 -8.37425,8.44611 -1.8449,4.49324 -3.04159,6.05183 -5.13471,6.68751 -1.50105,0.45586 -5.58804,3.82746 -9.08222,7.49243 -8.20816,8.6094 -12.48243,10.3584 -18.82576,7.70333 -4.42479,-1.85203 -4.4663,-1.85062 -7.94152,0.26985 -3.95666,2.41421 -8.4826,2.98944 -10.35423,1.31601 -0.98016,-0.87636 -1.84866,-0.59667 -3.8862,1.25155 -6.36876,5.77697 -14.69058,8.69236 -20.67762,7.244 z M 516.7011,131.39709 c -0.31869,-0.84339 -0.85851,-2.26424 -1.19959,-3.15744 -3.52906,-9.2419 23.36608,-37.062494 31.47603,-32.559111 3.36692,1.869628 2.45242,3.108388 -5.58941,7.571231 -12.74933,7.07531 -22.63775,18.91194 -22.25073,26.63457 0.11459,2.28675 -1.71448,3.42097 -2.4363,1.51075 z"
          id="path36"
          inkscape:connector-curvature="0"
          sodipodi:nodetypes="csccsccssccssssccscscsssscsscssscsssscccssssssscsssscsscscssssssssssssssscscssscscssc"/>
  </g>
  <g style="display:inline"
     inkscape:label="Layer 1 copy"
     id="g100"
     inkscape:groupmode="layer">
    <path sodipodi:nodetypes="scccsssccsscsccsssscssssscssccsscssccsssssscsccssssscccsssscsssssssscccssscsssccscssssccssccsssssssssssssscsssss"
          inkscape:connector-curvature="0"
          id="path98"
          d="M 114.5,561.11025 C 81.138421,545.05125 66.996152,487.04266 83.145319,432.5 88.699715,413.74042 98.952679,390.73184 107.1854,378.55186 147.10729,319.48906 183.34,287.91829 249,254.98407 262.20046,248.36289 299.71308,232 301.69196,232 c 4.601,0 5.93127,-35.05507 2.20099,-58 -1.53937,-9.46865 -3.83592,-20.70532 -5.51827,-27 -0.80848,-3.025 -1.87657,-7.075 -2.37354,-9 C 288.33591,108.30892 275.33158,85.014453 262.93083,78.761609 224.79051,59.530086 131.91928,124.48887 86.147867,202.41246 69.548411,230.67221 52.780628,268.45104 44.387979,296.5 c -3.121072,10.43089 -6.927395,16 -10.935534,16 -6.74085,0 -8.640228,-13.75986 -6.487769,-47 0.641072,-9.9 1.550702,-25.74791 2.0214,-35.21758 0.470697,-9.46966 1.158111,-17.7067 1.527585,-18.30452 0.369475,-0.59783 1.091175,-11.74992 1.603779,-24.78243 C 32.630043,174.16296 33.466607,153.375 33.976471,141 c 0.509864,-12.375 0.978767,-40.41315 1.042006,-62.306991 0.119709,-41.444292 0.362135,-43.712397 4.255988,-39.818544 1.222136,1.222136 1.434137,65.406825 0.266568,80.705055 C 39.20856,123.93578 38.520907,139.875 38.012915,155 c -0.507992,15.125 -1.382018,34.7 -1.942281,43.5 -0.560263,8.8 -1.507201,24.775 -2.104307,35.5 -0.597107,10.725 -1.733801,25.74547 -2.525988,33.37881 -4.252265,40.97396 2.100489,51.20235 12.186529,19.62119 0.790438,-2.475 2.590659,-8.1 4.00049,-12.5 C 73.013594,195.27107 139.36904,113.32257 202.26475,83.523926 255.08599,58.498349 278.0357,67.525753 296.26633,120.5 c 10.36394,30.11536 13.57587,49.08189 15.57994,92 0.77031,16.4967 0.3636,16.10884 12.67547,12.08766 4.25085,-1.38837 14.98494,-4.37267 23.85354,-6.63177 25.51885,-6.50764 30.79128,-9.22145 66.12472,-15.42394 12.1,-2.39284 24.025,-4.6486 26.5,-5.0128 2.475,-0.3642 11.38526,-1.98683 19.80057,-3.60585 8.41532,-1.61902 21.01103,-3.61166 27.99048,-4.42809 6.97944,-0.81643 15.16918,-1.92614 18.19942,-2.46603 10.78669,-1.92182 47.71929,-7.14752 60.50953,-8.56167 17.012,-1.88093 49.52465,-5.32025 56.5,-5.9768 3.025,-0.28473 18.775,-1.40687 35,-2.49364 40.20738,-2.69316 70.20073,-4.96617 78,-5.91115 3.575,-0.43316 8.15839,-0.58161 10.18531,-0.32989 2.03227,0.25239 5.9466,-0.2934 8.72665,-1.21679 6.76786,-2.24792 11.27963,-1.63401 5.87016,0.79875 -2.04484,0.9196 -5.06038,1.67201 -6.70121,1.67201 -1.64083,0 -5.59279,0.68294 -8.78212,1.51766 -6.59832,1.7269 -19.12405,2.9535 -96.29879,9.43014 -58.74624,4.93009 -84.51494,7.84589 -124.5,14.08751 -13.75,2.14636 -30.4,4.59419 -37,5.43961 -14.24794,1.8251 -13.05488,1.62275 -58.5,9.92168 -44.86562,8.1931 -113.4561,25.75607 -116.81453,29.911 -0.53011,0.65582 -1.25672,5.0174 -1.61469,9.6924 -1.85158,24.18063 -7.63922,61.25602 -12.09812,77.5 -2.15201,7.8399 -5.62937,20.70143 -6.48884,24 -2.12761,8.16549 -11.98325,34.84554 -18.47158,50.00412 -9.31193,21.75529 -21.43448,44.88097 -31.97422,60.99588 -2.87776,4.4 -7.76655,11.88023 -10.86398,16.62274 -3.09742,4.74251 -7.75729,11.49251 -10.35526,15 -2.59797,3.50749 -7.22,9.75059 -10.27118,13.87354 -35.16693,47.51989 -72.22135,69.8237 -96.5476,58.11397 z m 8.5,-3.48312 c 4.40898,0.40447 11.8078,1.00587 22.10171,-2.53389 3.57618,-1.19782 8.21495,-2.23208 18.7904,-10.07329 22.06489,-16.36012 40.36863,-37.8394 68.18965,-80.01995 11.92336,-18.07748 14.376,-22.20801 23.75126,-40 5.26484,-9.99139 7.40699,-14.67239 17.84744,-39 4.65342,-10.84309 11.8588,-30.84929 13.32581,-37 0.45913,-1.925 1.58131,-5.975 2.49373,-9 0.91242,-3.025 2.01807,-7.075 2.45699,-9 0.43893,-1.925 1.9346,-8.225 3.32372,-14 3.17175,-13.18603 4.17075,-18.11913 6.07525,-30 6.81437,-42.51011 6.31116,-51.24445 -2.75007,-47.73381 -72.2711,28.0004 -138.0292,72.21604 -161.87447,108.84414 -1.9298,2.96432 -5.77704,8.08967 -8.54941,11.38967 -20.86549,24.83652 -36.909589,56.32516 -43.309214,85 -3.884372,17.40473 -2.454642,46.54455 -1.949771,50.12219 0.171665,1.21649 0.0061,2.53915 0.711061,7.03542 0.818098,5.21775 1.42437,8.00569 2.016419,10.52995 0.519217,2.21374 1.130732,5.26713 2.962193,8.56713 1.831462,3.3 2.538627,5.95869 3.592392,7.73046 1.802956,3.03143 2.140303,5.05964 4.127287,7.6114 1.930279,2.47892 2.005402,3.13238 9.473363,10.91271 9.51642,9.91449 13.17953,10.18622 17.19426,10.61787 z M 91.5,279.04683 C 80.867465,274.64437 80.413178,251.50767 90.513216,228.79026 92.540408,224.23062 95.100071,217.575 96.201356,214 c 3.043526,-9.87992 11.418294,-14.77681 15.130864,-8.84732 1.06395,1.69927 0.59821,2.43687 -7.96832,12.61956 -6.352442,5.69363 -11.355838,19.13517 -12.536131,22.54719 -1.020581,2.60451 -3.022868,18.82706 -2.354911,22.38758 1.893658,10.09407 5.364052,12.81417 9.954605,7.80246 C 102.00226,266.6067 103,266.20361 103,268.66214 103,270.72996 98.23185,279 97.039634,279 c -0.481833,0 -1.475363,0.19686 -2.207847,0.43747 C 94.099304,279.67808 92.6,279.50229 91.5,279.04683 Z m 41.22209,-21.28231 c -16.89333,-9.79074 -9.97874,-27.76921 14.17549,-36.85739 7.51715,-2.82838 8.92864,-4.68375 19.32857,-25.40713 7.70566,-15.35464 12.21003,-26.04785 17.20151,-40.83576 2.01161,-5.95968 4.81574,-12.58603 6.2314,-14.72523 2.997,-4.52878 2.58074,-7.46197 -0.90413,-6.37096 -5.99154,1.87576 -41.65964,30.16379 -53.17497,42.17254 -4.35602,4.54268 -8.51852,8.25941 -9.25,8.25941 -10.43272,0 37.4926,-43.34661 60.98442,-55.15807 13.30497,-6.68961 15.80842,-3.9913 7.71975,8.32063 -2.76877,4.21441 -4.00933,7.36329 -5.03413,9.63716 -2.49873,5.54428 -9.7557,31.46641 -20.62383,53.66472 -7.42863,15.17309 -7.34134,15.57753 2.85995,13.25161 C 204.52734,206.35357 242,202.53448 242,206.60595 c 0,1.56139 -1.22973,1.87566 -13.5,3.45013 -27.13489,3.48183 -60.51667,9.81712 -68.55693,13.01093 -2.6468,1.05139 -6.40161,7.56776 -13.36527,23.19509 -6.24627,14.01745 -7.5906,15.13345 -13.85571,11.50242 z"
          style="fill:#000000"/>
    <path style="fill:none;stroke:#000000;stroke-width:1px;stroke-linecap:butt;stroke-linejoin:miter;stroke-opacity:1"
          d="m 148.96854,225.28262 c -1.37497,0.61522 -2.79142,1.14916 -4.07837,1.94693 -1.1237,0.6299 -2.28934,1.17966 -3.4602,1.74095 -1.07251,0.42494 -1.78124,1.15227 -2.71019,1.71684 -0.97654,0.67283 -2.00594,1.21323 -2.94976,1.98315 -0.94517,0.75386 -1.9775,1.22074 -2.79489,2.13459 -0.72972,0.82799 -1.62483,1.63301 -2.15995,2.65562 -0.66624,1.31608 -0.67907,2.81483 -0.70428,4.25207 -0.49044,1.19814 -0.19958,2.54157 -0.4313,3.7642 -0.16991,1.10885 0.45792,2.03491 1.05668,2.91364 0.5793,1.15154 1.75316,1.80471 2.51029,2.82209 0.70518,0.94369 1.46829,1.97757 2.55592,2.50041 1.44884,0.11631 1.93555,-1.46631 2.54021,-2.46541 0.54189,-1.08207 0.78215,-2.348 1.39005,-3.40504 0.28642,-1.07102 1.12844,-1.89957 1.34678,-3.01523 0.39325,-1.09613 0.96632,-2.08868 1.47553,-2.99243 0.38361,-0.88515 0.86679,-1.92573 1.34499,-2.81171 0.4584,-1.12498 0.96777,-2.19076 1.42391,-3.32202 0.55179,-1.07732 0.93898,-2.21978 1.13024,-3.42911 0.66013,-0.98813 1.03656,-2.13966 1.6738,-3.14377 0.49737,-1.05067 0.70161,-2.2145 1.42222,-3.14474 0.5291,-0.74475 0.33392,-1.92925 -0.58168,-0.70103 z"
          id="path3807"
          inkscape:connector-curvature="0"/>
  </g>
</svg>